PathFileType	4	(X/Y/Z)	OpenSim_Sub10_EMGBaseline_Accel.trc
DataRate	CameraRate	NumFrames	NumMarkers	Units	OrigDataRate	OrigDataStartFrame	OrigNumFrames
100	100	20	8	m	100	2051	8201
Frame#	Time	torso_imu_offset_imu	pelvis_imu_offset_imu	tibia_r_imu_offset_imu	femur_r_imu_offset_imu	tibia_l_imu_offset_imu	femur_l_imu_offset_imu	toes_r_imu_offset_imu	toes_l_imu_offset_imu
				X1	Y1	Z1	X2	Y2	Z2	X3	Y3	Z3	X4	Y4	Z4	X5	Y5	Z5	X6	Y6	Z6	X7	Y7	Z7	X8		Y8	Z8	

2051	20.50000000	8.66002900	-0.29470900	6.10374900	8.38321300	1.29964200	2.98690500	10.03330200	0.14903800	-0.26780800	9.03372600	-0.56563700	-0.52284700	1.99788500	-4.67969400	1.79292500	8.17190300	2.70481700	0.16243300	4.57049100	0.00736500	8.95721100	0.99760600	-1.09382300	11.16319700
2052	20.51000000	8.32008900	-0.30511500	6.07520300	8.45515400	1.43868000	2.95075600	10.06863700	0.35286500	-0.44819500	9.09170900	-0.69316300	-0.55784900	2.36805300	-4.35856800	2.14295300	8.09023900	2.48215300	0.02081300	4.63385100	-0.18238200	8.81821600	1.82330700	-1.23570800	11.53673300
2053	20.52000000	8.21366700	-0.26262600	6.08752900	8.54984000	1.64801900	2.90736600	9.97412000	1.21757500	0.02396900	9.21245700	-0.75396400	-0.63592300	2.72935700	-4.05015700	2.33967800	7.90209300	2.23974700	-0.08399000	4.83557700	0.08839500	8.67953600	3.04750500	-1.21475200	12.31790000
2054	20.53000000	8.22987000	-0.27190300	6.08163600	8.57717500	1.91597800	2.92589100	9.93025900	2.20288200	0.08925400	9.21952700	-0.76429500	-0.57804100	3.12626900	-3.59030100	2.26784800	7.70316100	2.21648200	-0.21671700	4.88196100	0.22221800	8.72061000	4.23420100	-1.32662100	13.01294500
2055	20.54000000	8.27618700	-0.36935100	6.11372100	8.60903900	2.14775100	2.94559200	9.81899400	2.62836400	0.14496600	9.08830800	-0.72372900	-0.40875900	3.47554400	-3.25791100	1.90471800	7.65662200	2.01102700	-0.14240800	4.93024700	0.30029500	8.75222100	5.25735000	-1.45148600	13.54378700
2056	20.55000000	8.22947300	-0.38612600	6.16021200	8.57393700	2.36806700	2.97916800	9.52597200	2.61078300	0.08084400	8.97680300	-0.69931800	-0.23300300	3.88056000	-2.97403500	1.86365400	7.55134500	2.02955800	-0.09227300	4.76962000	0.11021800	8.80886600	5.72134000	-1.26504300	13.84828100
2057	20.56000000	8.10710700	-0.40243000	6.22658000	8.55877700	2.50094500	2.96314700	9.50995200	2.01194200	0.03500200	8.88066700	-0.71487000	-0.25879200	4.62446800	-3.06442300	1.96229100	7.66585300	1.84876700	0.00520200	4.95795800	0.14189300	8.68312400	6.18344500	-1.12734600	13.96376200
2058	20.57000000	8.03222800	-0.35447200	6.24872300	8.55410000	2.59961500	2.97147400	9.71542500	1.15573000	0.07285600	8.85435100	-0.75453400	-0.39258100	5.66633600	-3.13807200	1.83929000	7.67137800	1.86239200	0.08427400	4.81329800	0.23647800	8.82503400	6.94088700	-0.41030300	14.40888900
2059	20.58000000	8.09378300	-0.41892700	6.24624200	8.44556600	2.64451800	2.95290200	9.93417100	0.42519900	-0.05031900	8.94065500	-0.80476700	-0.50893200	6.91041100	-3.21484900	2.18629000	7.61630300	2.01072600	0.21777500	5.09463100	0.16711400	8.59237800	8.11148100	0.64029300	14.69669200
2060	20.59000000	8.13679900	-0.38538500	6.22353300	8.37766600	2.62248400	2.90335000	10.08612400	-0.14294000	-0.26007600	8.91765800	-0.87320100	-0.57299200	7.87613900	-3.54241900	3.35623700	7.54456400	2.30289300	0.37652900	4.80658000	0.01375400	8.77219200	9.25797600	1.68895000	14.74866800
2061	20.60000000	8.19939300	-0.40686100	6.15302400	8.26470300	2.55278500	2.76294400	9.97309100	-0.47211900	-0.23134600	8.93512900	-0.94382300	-0.53328300	9.03173300	-3.47893600	4.15043600	7.35160200	2.58207200	0.62782500	4.81458900	-0.12349600	8.73417600	11.98013000	3.44452400	15.62803400
2062	20.61000000	8.25487500	-0.48388900	6.08896300	8.16724200	2.52207400	2.71290300	9.88724000	-0.63915800	-0.27832800	8.89311200	-0.83745100	-0.50134200	10.70114500	-3.24687200	3.07985500	7.05885000	2.89864500	0.92169600	4.65498700	-0.03270600	8.76624100	16.27322700	4.80732500	16.65310600
2063	20.62000000	8.37836800	-0.56967600	6.04850600	8.06680200	2.48807800	2.63537900	9.90977500	-0.44076900	-0.29794900	8.82957100	-0.59193700	-0.38036200	12.58423800	-3.17173800	1.29304400	6.83034100	3.18064700	1.34586500	5.25774700	0.17521000	8.58708000	17.95526200	5.50425400	16.55289700
2064	20.63000000	8.33200500	-0.62347900	6.00772300	7.95665200	2.54193200	2.65056400	10.03348400	-0.08711300	-0.12917800	8.96267200	-0.22780300	-0.32518000	13.76647200	-2.92225300	0.45725100	6.87677200	3.39719600	1.95672300	4.91710800	0.17448000	8.67891900	17.78976200	3.42583100	14.97318000
2065	20.64000000	8.28427600	-0.60890100	5.98987300	7.94865300	2.55855600	2.69651300	10.03700400	0.37680600	-0.09786800	9.12011700	-0.00978500	-0.41916200	14.24693300	-1.27014400	0.44471800	7.20896700	3.95531300	2.27573400	4.90789400	0.10749800	8.71628700	18.49600700	0.46454400	13.45429300
2066	20.65000000	8.46636400	-0.61947400	6.02494800	8.07973000	2.59536800	2.73828400	9.98183400	0.51787100	-0.09878800	9.24090500	-0.01573900	-0.69298000	15.40348200	1.40337200	0.41392100	7.56957600	4.68699000	2.53463900	4.99198900	0.21783300	8.71293600	20.04715800	-1.54318300	12.23354600
2067	20.66000000	8.76681200	-0.52278500	6.07036300	8.38310500	2.60782400	2.82359200	9.93454300	0.43012500	-0.04380300	9.28830900	-0.20638800	-0.96642000	16.06396600	2.08371200	-0.52530700	8.03554200	5.45779100	2.56628500	5.08049100	0.30956400	8.62269000	20.62225700	-1.72825700	10.64727300
2068	20.67000000	9.07049300	-0.56376000	6.17247200	8.63770800	2.63146700	2.94466500	9.98057900	0.07763500	-0.32705300	9.16216200	-0.33585200	-1.17211100	14.65969500	0.13902300	-0.98887900	8.24814100	6.03976500	2.24505000	5.11670900	0.16933600	8.87510700	20.27412000	-1.58438600	8.05330700
2069	20.68000000	9.32024200	-0.67576800	6.12016100	8.89473700	2.48229500	3.12700600	10.01331000	-0.23751900	-0.70639500	9.01849800	-0.36901200	-1.29156900	12.62458900	-2.03121700	0.03765200	8.35194600	6.52244100	1.61470200	4.65246600	-0.31620200	8.79032700	19.58225800	-1.66112200	4.96452400
2070	20.69000000	9.32330900	-0.70733300	6.16570800	9.07261000	2.24578800	3.20394600	10.13740700	-0.56268900	-0.57487000	8.95392100	-0.28596600	-1.34699100	10.57983200	-3.15863100	2.20360800	7.92209000	7.28584500	1.06219900	4.73082900	-0.28694500	8.91682600	18.56601700	-1.90566900	2.21651000
